<svg xmlns="http://www.w3.org/2000/svg" xmlns:xlink="http://www.w3.org/1999/xlink" width="500" zoomAndPan="magnify" viewBox="0 0 375 374.999991" height="500" preserveAspectRatio="xMidYMid meet" version="1.0"><defs><g/></defs><rect x="-37.5" width="450" fill="#ffffff" y="-37.499999" height="449.999989" fill-opacity="1"/><rect x="-37.5" width="450" fill="#ffffff" y="-37.499999" height="449.999989" fill-opacity="1"/><g fill="#103954" fill-opacity="1"><g transform="translate(109.870867, 198.374987)"><g><path d="M 2.71875 -15.996094 C 3.808594 -12.351562 4.351562 -10.621094 5.121094 -7.613281 C 5.949219 -4.382812 6.878906 0 9.503906 0 L 16.507812 0 C 17.40625 0 18.332031 0.03125 19.003906 -1.917969 C 21.308594 -8.574219 24.058594 -15.675781 24.058594 -18.78125 C 24.058594 -20.859375 23.101562 -22.875 20.574219 -22.875 C 17.246094 -22.875 13.148438 -20.539062 13.148438 -18.523438 C 13.148438 -16.894531 18.941406 -17.566406 18.941406 -9.40625 C 18.941406 -5.824219 17.757812 -2.113281 16.636719 -2.113281 C 15.070312 -2.113281 13.148438 -10.460938 11.679688 -15.996094 C 11.039062 -18.429688 10.429688 -20.605469 11.199219 -22.398438 L 0 -22.398438 C 1.34375 -21.210938 1.953125 -18.589844 2.71875 -15.996094 Z M 2.71875 -15.996094 "/></g></g></g><g fill="#103954" fill-opacity="1"><g transform="translate(134.72876, 198.374987)"><g><path d="M 4.0625 -2.816406 C 6.238281 -0.609375 9.085938 0.480469 12 0.480469 C 14.972656 0.480469 18.011719 -0.703125 20.347656 -3.070312 C 24.925781 -7.710938 25.050781 -15.070312 20.605469 -19.550781 C 18.429688 -21.757812 15.582031 -22.84375 12.671875 -22.84375 C 9.695312 -22.84375 6.65625 -21.660156 4.320312 -19.324219 C -0.289062 -14.6875 -0.382812 -7.328125 4.0625 -2.816406 Z M 10.78125 -21.148438 C 12.863281 -21.46875 15.230469 -17.246094 16.0625 -11.710938 C 16.894531 -6.078125 15.902344 -1.375 13.855469 -1.054688 C 11.773438 -0.734375 9.40625 -4.925781 8.542969 -10.496094 C 7.679688 -16.09375 8.671875 -20.828125 10.78125 -21.148438 Z M 10.78125 -21.148438 "/></g></g></g><g fill="#103954" fill-opacity="1"><g transform="translate(159.394702, 198.374987)"><g><path d="M 2.71875 -15.996094 C 3.808594 -12.351562 4.414062 -10.65625 5.277344 -7.613281 C 6.175781 -4.414062 6.878906 0 9.503906 0 L 15.003906 0 C 15.644531 0 16.222656 0.0976562 16.222656 0.671875 C 16.222656 1.375 15.003906 3.230469 12.0625 3.230469 C 9.855469 3.230469 8.703125 1.984375 7.710938 1.984375 C 7.070312 1.984375 6.558594 3.617188 6.046875 5.214844 C 5.632812 6.496094 5.214844 7.519531 5.214844 8.191406 C 5.214844 9.085938 7.839844 10.078125 9.757812 10.078125 C 14.429688 10.078125 15.902344 5.984375 17.980469 0.992188 C 20.476562 -6.304688 24.058594 -15.230469 24.058594 -18.78125 C 24.058594 -20.859375 23.101562 -22.875 20.574219 -22.875 C 17.246094 -22.875 13.148438 -20.539062 13.148438 -18.523438 C 13.148438 -16.894531 18.941406 -17.566406 18.941406 -9.40625 C 18.941406 -5.824219 17.757812 -2.113281 16.636719 -2.113281 C 15.070312 -2.113281 13.148438 -10.460938 11.679688 -15.996094 C 11.039062 -18.429688 10.429688 -20.605469 11.199219 -22.398438 L 0 -22.398438 C 1.34375 -21.210938 1.953125 -18.589844 2.71875 -15.996094 Z M 2.71875 -15.996094 "/></g></g></g><g fill="#103954" fill-opacity="1"><g transform="translate(184.252595, 198.374987)"><g><path d="M 0.800781 -4.992188 C 0.800781 -1.917969 3.390625 0.480469 6.496094 0.480469 C 11.070312 0.480469 12 -2.496094 13.34375 -2.496094 C 13.820312 -2.496094 14.078125 -1.917969 14.171875 -1.375 C 14.332031 -0.511719 14.878906 0 15.835938 0 L 23.675781 0 C 22.8125 -0.863281 22.554688 -1.953125 22.554688 -3.777344 L 22.554688 -13.277344 C 22.554688 -17.851562 19.101562 -22.875 11.742188 -22.875 C 8.351562 -22.875 4.992188 -22.398438 2.816406 -20.316406 C 1.984375 -19.550781 2.175781 -18.398438 2.175781 -17.308594 L 2.175781 -15.550781 C 2.175781 -15.003906 2.65625 -14.527344 3.167969 -14.527344 C 5.152344 -14.527344 7.230469 -21.050781 11.261719 -21.117188 C 13.628906 -21.148438 14.046875 -19.292969 14.046875 -17.886719 C 14.046875 -17.308594 13.820312 -16.667969 12.894531 -16.476562 C 6.878906 -15.230469 0.800781 -11.804688 0.800781 -4.992188 Z M 12.894531 -14.398438 C 13.757812 -14.398438 14.046875 -13.855469 14.046875 -12.414062 C 14.046875 -10.429688 14.078125 -9.246094 14.078125 -7.230469 C 14.078125 -5.152344 13.214844 -3.582031 11.484375 -3.582031 C 9.117188 -3.582031 8.445312 -5.757812 8.445312 -8 C 8.445312 -11.933594 10.8125 -14.398438 12.894531 -14.398438 Z M 12.894531 -14.398438 "/></g></g></g><g fill="#103954" fill-opacity="1"><g transform="translate(208.086734, 198.374987)"><g><path d="M 7.070312 -4.222656 C 12.671875 -1.726562 16.574219 -0.800781 16.574219 4.160156 C 16.574219 6.558594 15.101562 7.742188 12.863281 7.742188 C 10.589844 7.742188 9.277344 6.078125 9.277344 3.808594 C 9.277344 1.28125 9.855469 1.023438 9.855469 -0.03125 C 9.855469 -0.992188 9.023438 -1.503906 8.351562 -1.503906 C 7.101562 -1.503906 5.757812 -0.863281 4.542969 -0.222656 C 2.589844 0.800781 1.023438 2.144531 1.023438 2.816406 C 1.023438 7.421875 8.253906 10.078125 14.078125 10.078125 C 19.484375 10.078125 24.09375 8.03125 24.09375 4 C 24.09375 -2.078125 14.71875 -0.832031 14.75 -2.878906 C 14.75 -3.167969 14.972656 -3.421875 15.261719 -3.457031 C 20.894531 -4.09375 24.445312 -7.964844 24.445312 -13.085938 C 24.445312 -17.148438 22.269531 -20.253906 18.523438 -21.789062 C 20.667969 -21.691406 20.734375 -21.019531 23.292969 -21.019531 C 24.414062 -21.019531 25.402344 -21.597656 25.402344 -22.398438 C 25.402344 -23.707031 24.1875 -25.820312 22.910156 -25.820312 C 21.339844 -25.820312 21.210938 -22.398438 16.925781 -22.398438 C 15.964844 -22.398438 14.109375 -22.875 12.636719 -22.875 C 5.535156 -22.875 0.800781 -18.941406 0.800781 -13.085938 C 0.800781 -8.925781 3.261719 -5.917969 7.070312 -4.222656 Z M 12.636719 -21.371094 C 14.6875 -21.371094 16.0625 -17.886719 16.0625 -12.574219 C 16.0625 -7.292969 14.6875 -3.808594 12.636719 -3.808594 C 10.558594 -3.808594 9.183594 -7.292969 9.183594 -12.574219 C 9.183594 -17.886719 10.558594 -21.371094 12.636719 -21.371094 Z M 12.636719 -21.371094 "/></g></g></g><g fill="#103954" fill-opacity="1"><g transform="translate(233.488485, 198.374987)"><g><path d="M 4.0625 -2.816406 C 6.238281 -0.609375 9.085938 0.480469 12 0.480469 C 14.972656 0.480469 18.011719 -0.703125 20.347656 -3.070312 C 24.925781 -7.710938 25.050781 -15.070312 20.605469 -19.550781 C 18.429688 -21.757812 15.582031 -22.84375 12.671875 -22.84375 C 9.695312 -22.84375 6.65625 -21.660156 4.320312 -19.324219 C -0.289062 -14.6875 -0.382812 -7.328125 4.0625 -2.816406 Z M 10.78125 -21.148438 C 12.863281 -21.46875 15.230469 -17.246094 16.0625 -11.710938 C 16.894531 -6.078125 15.902344 -1.375 13.855469 -1.054688 C 11.773438 -0.734375 9.40625 -4.925781 8.542969 -10.496094 C 7.679688 -16.09375 8.671875 -20.828125 10.78125 -21.148438 Z M 10.78125 -21.148438 "/></g></g></g></svg>